<svg width="24" height="24" viewBox="0 0 24 24" fill="none" xmlns="http://www.w3.org/2000/svg">
<g clip-path="url(#clip0_312_575)">
<mask id="mask0_312_575" style="mask-type:luminance" maskUnits="userSpaceOnUse" x="0" y="0" width="24" height="24">
<path d="M0 0H24V24H0V0Z" fill="white"/>
</mask>
<g mask="url(#mask0_312_575)">
<path fill-rule="evenodd" clip-rule="evenodd" d="M17.25 5.25H20.25C20.4489 5.25 20.6397 5.32902 20.7803 5.46967C20.921 5.61032 21 5.80109 21 6V18C21 18.1989 20.921 18.3897 20.7803 18.5303C20.6397 18.671 20.4489 18.75 20.25 18.75H17.25C17.0511 18.75 16.8603 18.671 16.7197 18.5303C16.579 18.3897 16.5 18.1989 16.5 18V6C16.5 5.80109 16.579 5.61032 16.7197 5.46967C16.8603 5.32902 17.0511 5.25 17.25 5.25ZM13.5 18.75C13.6989 18.75 13.8897 18.671 14.0303 18.5303C14.171 18.3897 14.25 18.1989 14.25 18V10.5C14.25 10.3011 14.171 10.1103 14.0303 9.96967C13.8897 9.82902 13.6989 9.75 13.5 9.75H10.5C10.3011 9.75 10.1103 9.82902 9.96967 9.96967C9.82902 10.1103 9.75 10.3011 9.75 10.5V18C9.75 18.1989 9.82902 18.3897 9.96967 18.5303C10.1103 18.671 10.3011 18.75 10.5 18.75H13.5ZM6.75 18.75C6.94891 18.75 7.13968 18.671 7.28033 18.5303C7.42098 18.3897 7.5 18.1989 7.5 18V15C7.5 14.8011 7.42098 14.6103 7.28033 14.4697C7.13968 14.329 6.94891 14.25 6.75 14.25H3.75C3.55109 14.25 3.36032 14.329 3.21967 14.4697C3.07902 14.6103 3 14.8011 3 15V18C3 18.1989 3.07902 18.3897 3.21967 18.5303C3.36032 18.671 3.55109 18.75 3.75 18.75H6.75ZM5.25 21H3.75C2.95435 21 2.19129 20.6839 1.62868 20.1213C1.06607 19.5587 0.75 18.7956 0.75 18V15C0.75 14.2044 1.06607 13.4413 1.62868 12.8787C2.19129 12.3161 2.95435 12 3.75 12H6.75C7.01 12 7.26 12.0315 7.5 12.0945V10.5C7.5 9.70435 7.81607 8.94129 8.37868 8.37868C8.94129 7.81607 9.70435 7.5 10.5 7.5H13.5C13.76 7.5 14.01 7.5315 14.25 7.5945V6C14.25 5.20435 14.5661 4.44129 15.1287 3.87868C15.6913 3.31607 16.4544 3 17.25 3H20.25C21.0456 3 21.8087 3.31607 22.3713 3.87868C22.9339 4.44129 23.25 5.20435 23.25 6V18C23.25 18.7956 22.9339 19.5587 22.3713 20.1213C21.8087 20.6839 21.0456 21 20.25 21H5.25Z" fill="#1E1E1E" fill-opacity="0.5"/>
</g>
</g>
<defs>
<clipPath id="clip0_312_575">
<rect width="24" height="24" fill="white"/>
</clipPath>
</defs>
</svg>
