<svg width="24" height="25" viewBox="0 0 24 25" fill="none" xmlns="http://www.w3.org/2000/svg">
<path d="M11.143 12.4955C11.143 12.7606 11.0527 13.0149 10.8919 13.2023C10.7312 13.3898 10.5131 13.4951 10.2858 13.4951H5.14291C4.91558 13.4951 4.69756 13.3898 4.53681 13.2023C4.37606 13.0149 4.28576 12.7606 4.28576 12.4955C4.28576 12.2304 4.37606 11.9761 4.53681 11.7887C4.69756 11.6012 4.91558 11.4959 5.14291 11.4959H10.2858C10.5131 11.4959 10.7312 11.6012 10.8919 11.7887C11.0527 11.9761 11.143 12.2304 11.143 12.4955ZM10.2858 7.49738H5.14291C4.91558 7.49738 4.69756 7.60269 4.53681 7.79016C4.37606 7.97763 4.28576 8.23188 4.28576 8.497C4.28576 8.76212 4.37606 9.01638 4.53681 9.20384C4.69756 9.39131 4.91558 9.49663 5.14291 9.49663H10.2858C10.5131 9.49663 10.7312 9.39131 10.8919 9.20384C11.0527 9.01638 11.143 8.76212 11.143 8.497C11.143 8.23188 11.0527 7.97763 10.8919 7.79016C10.7312 7.60269 10.5131 7.49738 10.2858 7.49738ZM22.2859 15.6781V23.4914C22.2873 23.6676 22.2487 23.8411 22.174 23.9943C22.0993 24.1476 21.9912 24.275 21.8607 24.3638C21.7302 24.4526 21.5818 24.4996 21.4307 24.5C21.2796 24.5004 21.1311 24.4542 21.0002 24.3661L18.4288 22.6492L15.8573 24.3661C15.7264 24.4542 15.5779 24.5004 15.4268 24.5C15.2757 24.4996 15.1273 24.4526 14.9968 24.3638C14.8663 24.275 14.7582 24.1476 14.6835 23.9943C14.6088 23.8411 14.5702 23.6676 14.5716 23.4914V20.4925H1.7143C1.25964 20.4925 0.823602 20.2819 0.502108 19.9069C0.180613 19.532 0 19.0235 0 18.4933V2.49925C0 1.96902 0.180613 1.4605 0.502108 1.08557C0.823602 0.710635 1.25964 0.5 1.7143 0.5H20.5716C21.0263 0.5 21.4623 0.710635 21.7838 1.08557C22.1053 1.4605 22.2859 1.96902 22.2859 2.49925V6.31407C22.8278 6.9192 23.259 7.64598 23.5536 8.45063C23.8481 9.25528 24 10.1211 24 10.9961C24 11.871 23.8481 12.7369 23.5536 13.5415C23.259 14.3462 22.8278 15.0729 22.2859 15.6781ZM14.5716 18.4933V15.6781C13.6375 14.6275 13.0472 13.2296 12.9025 11.7257C12.7578 10.2217 13.0678 8.70606 13.7789 7.44019C14.4901 6.17432 15.5579 5.23767 16.798 4.79187C18.0381 4.34607 19.3728 4.41908 20.5716 4.99831V2.49925H1.7143V18.4933H14.5716ZM20.5716 16.9938C19.8928 17.3246 19.1644 17.4949 18.4288 17.4949C17.6931 17.4949 16.9647 17.3246 16.2859 16.9938V21.7695L18.0002 20.625C18.1297 20.5386 18.2763 20.4932 18.4255 20.4932C18.5747 20.4932 18.7214 20.5386 18.8509 20.625L20.5652 21.7695L20.5716 16.9938ZM22.2859 10.9961C22.2859 10.1064 22.0597 9.23668 21.6359 8.49694C21.212 7.75719 20.6096 7.18063 19.9048 6.84017C19.2 6.4997 18.4245 6.41062 17.6763 6.58419C16.928 6.75775 16.2408 7.18618 15.7013 7.81528C15.1619 8.44438 14.7945 9.2459 14.6457 10.1185C14.4969 10.9911 14.5732 11.8955 14.8652 12.7175C15.1571 13.5395 15.6515 14.242 16.2858 14.7363C16.9201 15.2306 17.6659 15.4944 18.4288 15.4944C18.9353 15.4944 19.4369 15.378 19.9048 15.152C20.3728 14.9259 20.798 14.5946 21.1562 14.1769C21.5144 13.7591 21.7985 13.2633 21.9923 12.7175C22.1862 12.1717 22.2859 11.5868 22.2859 10.9961Z" fill="#1E1E1E" fill-opacity="0.5"/>
</svg>
