<svg width="24" height="24" viewBox="0 0 24 24" fill="none" xmlns="http://www.w3.org/2000/svg">
<path d="M12 0C18.6276 0 24 5.3724 24 12C24 18.6276 18.6276 24 12 24C5.3724 24 0 18.6276 0 12C0 5.3724 5.3724 0 12 0ZM12 2.4C9.45392 2.4 7.01212 3.41143 5.21178 5.21178C3.41143 7.01212 2.4 9.45392 2.4 12C2.4 14.5461 3.41143 16.9879 5.21178 18.7882C7.01212 20.5886 9.45392 21.6 12 21.6C14.5461 21.6 16.9879 20.5886 18.7882 18.7882C20.5886 16.9879 21.6 14.5461 21.6 12C21.6 9.45392 20.5886 7.01212 18.7882 5.21178C16.9879 3.41143 14.5461 2.4 12 2.4ZM12 4.8C12.2939 4.80004 12.5776 4.90795 12.7972 5.10326C13.0169 5.29857 13.1572 5.5677 13.1916 5.8596L13.2 6V11.5032L16.4484 14.7516C16.6636 14.9675 16.7886 15.2573 16.7979 15.5621C16.8072 15.8668 16.7001 16.1637 16.4985 16.3923C16.2969 16.621 16.0157 16.7644 15.7122 16.7933C15.4087 16.8222 15.1056 16.7345 14.8644 16.548L14.7516 16.4484L11.1516 12.8484C10.9651 12.6617 10.8453 12.4188 10.8108 12.1572L10.8 12V6C10.8 5.68174 10.9264 5.37652 11.1515 5.15147C11.3765 4.92643 11.6817 4.8 12 4.8Z" fill="#1E1E1E" fill-opacity="0.5"/>
</svg>
