<svg width="24" height="17" viewBox="0 0 24 17" fill="none" xmlns="http://www.w3.org/2000/svg">
<path d="M23.9987 3.89473V13.3003C23.9987 14.1489 23.6826 14.9628 23.12 15.5628C22.5575 16.1629 21.7944 16.5 20.9988 16.5H2.99983C2.20423 16.5 1.44121 16.1629 0.87863 15.5628C0.316053 14.9628 0 14.1489 0 13.3003V3.70114C0 2.85253 0.316053 2.03867 0.87863 1.4386C1.44121 0.838541 2.20423 0.50143 2.99983 0.50143H20.8173L19.3174 2.10129H2.99983C2.60203 2.10129 2.22052 2.26984 1.93923 2.56987C1.65794 2.86991 1.49992 3.27684 1.49992 3.70114V13.3003C1.49992 13.7246 1.65794 14.1315 1.93923 14.4316C2.22052 14.7316 2.60203 14.9001 2.99983 14.9001H20.9988C21.3966 14.9001 21.7781 14.7316 22.0594 14.4316C22.3407 14.1315 22.4987 13.7246 22.4987 13.3003V5.49458L23.9987 3.89473ZM2.99983 6.10093C2.99983 5.88878 3.07885 5.68531 3.21949 5.53529C3.36013 5.38528 3.55089 5.301 3.74979 5.301H6.74962C6.94852 5.301 7.13928 5.38528 7.27992 5.53529C7.42057 5.68531 7.49958 5.88878 7.49958 6.10093C7.49958 6.31308 7.42057 6.51655 7.27992 6.66656C7.13928 6.81658 6.94852 6.90086 6.74962 6.90086H3.74979C3.55089 6.90086 3.36013 6.81658 3.21949 6.66656C3.07885 6.51655 2.99983 6.31308 2.99983 6.10093ZM2.99983 10.9005C2.99983 10.6883 3.07885 10.4849 3.21949 10.3349C3.36013 10.1848 3.55089 10.1006 3.74979 10.1006H10.4994C10.6983 10.1006 10.8891 10.1848 11.0297 10.3349C11.1704 10.4849 11.2494 10.6883 11.2494 10.9005C11.2494 11.1127 11.1704 11.3161 11.0297 11.4661C10.8891 11.6162 10.6983 11.7004 10.4994 11.7004H3.74979C3.55089 11.7004 3.36013 11.6162 3.21949 11.4661C3.07885 11.3161 2.99983 11.1127 2.99983 10.9005ZM23.7797 0.735009C23.8495 0.809315 23.9049 0.897588 23.9427 0.994772C23.9805 1.09196 24 1.19614 24 1.30136C24 1.40658 23.9805 1.51076 23.9427 1.60794C23.9049 1.70513 23.8495 1.7934 23.7797 1.86771L14.7802 11.4669C14.6394 11.6171 14.4484 11.7014 14.2492 11.7014C14.0501 11.7014 13.8591 11.6171 13.7182 11.4669C13.5774 11.3166 13.4983 11.1129 13.4983 10.9005C13.4983 10.6881 13.5774 10.4844 13.7182 10.3342L22.7177 0.735009C22.7874 0.660514 22.8702 0.601411 22.9613 0.561084C23.0524 0.520757 23.1501 0.5 23.2487 0.5C23.3473 0.5 23.445 0.520757 23.5361 0.561084C23.6272 0.601411 23.71 0.660514 23.7797 0.735009Z" fill="#1E1E1E" fill-opacity="0.5"/>
</svg>
