<svg width="24" height="25" viewBox="0 0 24 25" fill="none" xmlns="http://www.w3.org/2000/svg">
<path d="M6.24 1.88462C5.95634 1.88462 5.67547 1.93834 5.4134 2.04271C5.15134 2.14709 4.91322 2.30007 4.71265 2.49293C4.51207 2.68579 4.35297 2.91475 4.24442 3.16673C4.13587 3.41872 4.08 3.68879 4.08 3.96154C4.08 4.23428 4.13587 4.50436 4.24442 4.75634C4.35297 5.00833 4.51207 5.23728 4.71265 5.43014C4.91322 5.623 5.15134 5.77599 5.4134 5.88037C5.67547 5.98474 5.95634 6.03846 6.24 6.03846C6.81287 6.03846 7.36227 5.81964 7.76735 5.43014C8.17243 5.04065 8.4 4.51237 8.4 3.96154C8.4 3.4107 8.17243 2.88243 7.76735 2.49293C7.36227 2.10343 6.81287 1.88462 6.24 1.88462ZM2.64 3.96154C2.64 3.04348 3.01928 2.16303 3.69442 1.51386C4.36955 0.864697 5.28522 0.5 6.24 0.5C7.19478 0.5 8.11045 0.864697 8.78558 1.51386C9.46072 2.16303 9.84 3.04348 9.84 3.96154C9.84 4.8796 9.46072 5.76005 8.78558 6.40922C8.11045 7.05838 7.19478 7.42308 6.24 7.42308C5.28522 7.42308 4.36955 7.05838 3.69442 6.40922C3.01928 5.76005 2.64 4.8796 2.64 3.96154ZM0 10.6372C0 9.62646 0.85152 8.80769 1.90272 8.80769H7.27872C7.09619 9.24962 6.99046 9.7174 6.96576 10.1923H1.90272C1.84188 10.1921 1.7816 10.2034 1.72534 10.2257C1.66909 10.248 1.61798 10.2807 1.57496 10.3221C1.53194 10.3634 1.49787 10.4126 1.47471 10.4667C1.45154 10.5208 1.43975 10.5787 1.44 10.6372V11C1.44 11.1588 1.44192 12.1197 2.02272 13.028C2.52192 13.8071 3.51456 14.6517 5.6256 14.7883C5.13772 15.0936 4.75749 15.5339 4.53504 16.0511C2.61024 15.7086 1.45632 14.7846 0.7968 13.7526C-5.72205e-08 12.5092 0 11.2243 0 11.0028V10.6372ZM15.7603 8.80769C15.9389 9.23969 16.0483 9.70585 16.0733 10.1923H21.1373C21.3926 10.1923 21.6 10.3917 21.6 10.6372V11C21.6 11.1265 21.5981 11.7615 21.3053 12.4723C21.7354 12.7074 22.1347 12.9806 22.5034 13.292C22.8533 12.5752 23.0364 11.7937 23.04 11.0018V10.6372C23.0403 10.3969 22.9912 10.1589 22.8957 9.93681C22.8001 9.71473 22.66 9.51295 22.4833 9.34301C22.3065 9.17307 22.0967 9.03832 21.8657 8.94646C21.6348 8.85461 21.3872 8.80745 21.1373 8.80769H15.7603ZM15.12 10.4231C15.12 11.1172 14.9078 11.7634 14.5421 12.3062C13.7867 12.6693 13.1037 13.1573 12.5242 13.748C11.7988 13.9506 11.0255 13.9287 10.3138 13.6853C9.60206 13.4419 8.988 12.9895 8.55852 12.392C8.12903 11.7945 7.9059 11.0822 7.92069 10.356C7.93549 9.62986 8.18747 8.92656 8.64096 8.3457C9.09445 7.76483 9.72647 7.33585 10.4475 7.11948C11.1686 6.9031 11.9422 6.91031 12.6588 7.14007C13.3754 7.36982 13.9986 7.8105 14.4404 8.39969C14.8821 8.98889 15.1198 9.69676 15.12 10.4231ZM7.18272 15.2692H11.3904C11.1488 15.7097 10.9573 16.1739 10.8192 16.6538H7.18272C7.12188 16.6536 7.0616 16.6649 7.00534 16.6872C6.94909 16.7095 6.89798 16.7423 6.85496 16.7836C6.81194 16.825 6.77787 16.8741 6.7547 16.9282C6.73154 16.9823 6.71975 17.0403 6.72 17.0988V17.4615C6.72 17.6203 6.72192 18.5812 7.30272 19.4895C7.82112 20.2991 8.87136 21.1788 11.1562 21.2618C11.3798 21.7557 11.6611 22.2191 11.9914 22.6437C11.8384 22.6505 11.6813 22.6538 11.52 22.6538C8.53824 22.6538 6.912 21.5203 6.0768 20.2151C5.28 18.9698 5.28 17.6858 5.28 17.4634V17.0988C5.28 16.088 6.13152 15.2692 7.18272 15.2692ZM16.8 1.88462C16.5163 1.88462 16.2355 1.93834 15.9734 2.04271C15.7113 2.14709 15.4732 2.30007 15.2726 2.49293C15.0721 2.68579 14.913 2.91475 14.8044 3.16673C14.6959 3.41872 14.64 3.68879 14.64 3.96154C14.64 4.23428 14.6959 4.50436 14.8044 4.75634C14.913 5.00833 15.0721 5.23728 15.2726 5.43014C15.4732 5.623 15.7113 5.77599 15.9734 5.88037C16.2355 5.98474 16.5163 6.03846 16.8 6.03846C17.3729 6.03846 17.9223 5.81964 18.3274 5.43014C18.7324 5.04065 18.96 4.51237 18.96 3.96154C18.96 3.4107 18.7324 2.88243 18.3274 2.49293C17.9223 2.10343 17.3729 1.88462 16.8 1.88462ZM13.2 3.96154C13.2 3.04348 13.5793 2.16303 14.2544 1.51386C14.9295 0.864697 15.8452 0.5 16.8 0.5C17.7548 0.5 18.6705 0.864697 19.3456 1.51386C20.0207 2.16303 20.4 3.04348 20.4 3.96154C20.4 4.8796 20.0207 5.76005 19.3456 6.40922C18.6705 7.05838 17.7548 7.42308 16.8 7.42308C15.8452 7.42308 14.9295 7.05838 14.2544 6.40922C13.5793 5.76005 13.2 4.8796 13.2 3.96154ZM9.36 10.4231C9.36 10.6958 9.41587 10.9659 9.52442 11.2179C9.63297 11.4699 9.79208 11.6988 9.99265 11.8917C10.1932 12.0845 10.4313 12.2375 10.6934 12.3419C10.9555 12.4463 11.2363 12.5 11.52 12.5C11.8037 12.5 12.0845 12.4463 12.3466 12.3419C12.6087 12.2375 12.8468 12.0845 13.0473 11.8917C13.2479 11.6988 13.407 11.4699 13.5156 11.2179C13.6241 10.9659 13.68 10.6958 13.68 10.4231C13.68 9.87224 13.4524 9.34397 13.0473 8.95447C12.6423 8.56497 12.0929 8.34615 11.52 8.34615C10.9471 8.34615 10.3977 8.56497 9.99265 8.95447C9.58757 9.34397 9.36 9.87224 9.36 10.4231ZM24 18.5C24 20.0913 23.3426 21.6174 22.1723 22.7426C21.0021 23.8679 19.415 24.5 17.76 24.5C16.105 24.5 14.5179 23.8679 13.3477 22.7426C12.1774 21.6174 11.52 20.0913 11.52 18.5C11.52 16.9087 12.1774 15.3826 13.3477 14.2574C14.5179 13.1321 16.105 12.5 17.76 12.5C19.415 12.5 21.0021 13.1321 22.1723 14.2574C23.3426 15.3826 24 16.9087 24 18.5ZM18.24 14.8077C18.24 14.6853 18.1894 14.5679 18.0994 14.4813C18.0094 14.3948 17.8873 14.3462 17.76 14.3462C17.6327 14.3462 17.5106 14.3948 17.4206 14.4813C17.3306 14.5679 17.28 14.6853 17.28 14.8077V18.0385H13.92C13.7927 18.0385 13.6706 18.0871 13.5806 18.1736C13.4906 18.2602 13.44 18.3776 13.44 18.5C13.44 18.6224 13.4906 18.7398 13.5806 18.8264C13.6706 18.9129 13.7927 18.9615 13.92 18.9615H17.28V22.1923C17.28 22.3147 17.3306 22.4321 17.4206 22.5187C17.5106 22.6052 17.6327 22.6538 17.76 22.6538C17.8873 22.6538 18.0094 22.6052 18.0994 22.5187C18.1894 22.4321 18.24 22.3147 18.24 22.1923V18.9615H21.6C21.7273 18.9615 21.8494 18.9129 21.9394 18.8264C22.0294 18.7398 22.08 18.6224 22.08 18.5C22.08 18.3776 22.0294 18.2602 21.9394 18.1736C21.8494 18.0871 21.7273 18.0385 21.6 18.0385H18.24V14.8077Z" fill="#1E1E1E" fill-opacity="0.5"/>
</svg>
