<svg width="37" height="37" viewBox="0 0 37 37" fill="none" xmlns="http://www.w3.org/2000/svg">
<path d="M31.9707 14.9812C31.4501 14.4372 30.9116 13.8765 30.7086 13.3836C30.5208 12.932 30.5098 12.1836 30.4987 11.4587C30.478 10.111 30.4559 8.58374 29.394 7.52186C28.3322 6.45999 26.8049 6.4379 25.4572 6.41718C24.7323 6.40614 23.9839 6.39509 23.5323 6.20729C23.0407 6.00431 22.4787 5.46578 21.9347 4.9452C20.9819 4.02969 19.8993 2.99268 18.4577 2.99268C17.0161 2.99268 15.9349 4.02969 14.9807 4.9452C14.4367 5.46578 13.876 6.00431 13.3831 6.20729C12.9343 6.39509 12.1831 6.40614 11.4582 6.41718C10.1105 6.4379 8.58325 6.45999 7.52137 7.52186C6.4595 8.58374 6.44431 10.111 6.41669 11.4587C6.40565 12.1836 6.3946 12.932 6.20681 13.3836C6.00382 13.8752 5.46529 14.4372 4.94471 14.9812C4.02921 15.934 2.99219 17.0166 2.99219 18.4582C2.99219 19.8998 4.02921 20.981 4.94471 21.9352C5.46529 22.4792 6.00382 23.0399 6.20681 23.5328C6.3946 23.9844 6.40565 24.7328 6.41669 25.4577C6.43741 26.8054 6.4595 28.3326 7.52137 29.3945C8.58325 30.4564 10.1105 30.4785 11.4582 30.4992C12.1831 30.5103 12.9315 30.5213 13.3831 30.7091C13.8747 30.9121 14.4367 31.4506 14.9807 31.9712C15.9335 32.8867 17.0161 33.9237 18.4577 33.9237C19.8993 33.9237 20.9805 32.8867 21.9347 31.9712C22.4787 31.4506 23.0394 30.9121 23.5323 30.7091C23.9839 30.5213 24.7323 30.5103 25.4572 30.4992C26.8049 30.4785 28.3322 30.4564 29.394 29.3945C30.4559 28.3326 30.478 26.8054 30.4987 25.4577C30.5098 24.7328 30.5208 23.9844 30.7086 23.5328C30.9116 23.0412 31.4501 22.4792 31.9707 21.9352C32.8862 20.9824 33.9232 19.8998 33.9232 18.4582C33.9232 17.0166 32.8862 15.9354 31.9707 14.9812ZM24.7627 15.9257L17.0299 23.6585C16.9273 23.7612 16.8055 23.8427 16.6714 23.8983C16.5373 23.9538 16.3935 23.9825 16.2483 23.9825C16.1032 23.9825 15.9594 23.9538 15.8253 23.8983C15.6912 23.8427 15.5694 23.7612 15.4668 23.6585L12.1527 20.3444C12.0501 20.2418 11.9687 20.12 11.9131 19.9859C11.8576 19.8518 11.829 19.708 11.829 19.5629C11.829 19.4177 11.8576 19.274 11.9131 19.1399C11.9687 19.0058 12.0501 18.8839 12.1527 18.7813C12.36 18.574 12.6412 18.4576 12.9343 18.4576C13.0795 18.4576 13.2232 18.4862 13.3573 18.5417C13.4914 18.5973 13.6132 18.6787 13.7159 18.7813L16.2483 21.3152L23.1995 14.3626C23.3022 14.26 23.424 14.1785 23.5581 14.123C23.6922 14.0674 23.836 14.0389 23.9811 14.0389C24.1263 14.0389 24.27 14.0674 24.4041 14.123C24.5382 14.1785 24.66 14.26 24.7627 14.3626C24.8653 14.4652 24.9467 14.5871 25.0023 14.7212C25.0578 14.8553 25.0864 14.999 25.0864 15.1442C25.0864 15.2893 25.0578 15.433 25.0023 15.5671C24.9467 15.7012 24.8653 15.8231 24.7627 15.9257Z" fill="#106AD4"/>
</svg>
