<svg width="33" height="32" viewBox="0 0 33 32" fill="none" xmlns="http://www.w3.org/2000/svg">
<path d="M0.5 16C0.5 24.8366 7.66344 32 16.5 32C25.3366 32 32.5 24.8366 32.5 16C32.5 7.16344 25.3366 0 16.5 0C7.66344 0 0.5 7.16344 0.5 16Z" fill="#03C988"/>
<path fill-rule="evenodd" clip-rule="evenodd" d="M22.1 10.3C20.6 8.8 18.6 8 16.5 8C12.1 8 8.5 11.6 8.5 16C8.5 17.4 8.90001 18.8 9.60001 20L8.5 24L12.7 22.9C13.9 23.5 15.2 23.9 16.5 23.9C20.9 23.9 24.5 20.3 24.5 15.9C24.5 13.8 23.6 11.8 22.1 10.3ZM16.5 22.6C15.3 22.6 14.1 22.3 13.1 21.7L12.9 21.6L10.4 22.3L11.1 19.9L10.9 19.6C10.2 18.5 9.89999 17.3 9.89999 16.1C9.89999 12.5 12.9 9.5 16.5 9.5C18.3 9.5 19.9 10.2 21.2 11.4C22.5 12.7 23.1 14.3 23.1 16.1C23.1 19.6 20.2 22.6 16.5 22.6ZM20.1 17.6C19.9 17.5 18.9 17 18.7 17C18.5 16.9 18.4 16.9 18.3 17.1C18.2 17.3 17.8 17.7 17.7 17.9C17.6 18 17.5 18 17.3 18C17.1 17.9 16.5 17.7 15.7 17C15.1 16.5 14.7 15.8 14.6 15.6C14.5 15.4 14.6 15.3 14.7 15.2C14.8 15.1 14.9 15 15 14.9C15.1 14.8 15.1 14.7 15.2 14.6C15.3 14.5 15.2 14.4 15.2 14.3C15.2 14.2 14.8 13.2 14.6 12.8C14.5 12.5 14.3 12.5 14.2 12.5C14.1 12.5 14 12.5 13.8 12.5C13.7 12.5 13.5 12.5 13.3 12.7C13.1 12.9 12.6 13.4 12.6 14.4C12.6 15.4 13.3 16.3 13.4 16.5C13.5 16.6 14.8 18.7 16.8 19.5C18.5 20.2 18.8 20 19.2 20C19.6 20 20.4 19.5 20.5 19.1C20.7 18.6 20.7 18.2 20.6 18.2C20.5 17.7 20.3 17.7 20.1 17.6Z" fill="white"/>
</svg>
