<svg width="18" height="18" viewBox="0 0 18 18" fill="none" xmlns="http://www.w3.org/2000/svg">
<path d="M17.9921 18.0002V17.9994H17.9966V11.3979C17.9966 8.16841 17.3013 5.68066 13.5258 5.68066C11.7108 5.68066 10.4928 6.67666 9.99554 7.62091H9.94304V5.98216H6.36328V17.9994H10.0908V12.0489C10.0908 10.4822 10.3878 8.96716 12.328 8.96716C14.2398 8.96716 14.2683 10.7552 14.2683 12.1494V18.0002H17.9921Z" fill="#106AD4"/>
<path d="M0.293457 5.98291H4.02546V18.0002H0.293457V5.98291Z" fill="#106AD4"/>
<path d="M2.15808 0C0.964832 0 -0.00341797 0.96825 -0.00341797 2.1615C-0.00341797 3.35475 0.964832 4.34325 2.15808 4.34325C3.35133 4.34325 4.31958 3.35475 4.31958 2.1615C4.31883 0.96825 3.35058 0 2.15808 0V0Z" fill="#106AD4"/>
</svg>
