<svg width="46" height="46" viewBox="0 0 46 46" fill="none" xmlns="http://www.w3.org/2000/svg">
<rect x="-0.00341797" width="46" height="46" rx="4" fill="white"/>
<g clip-path="url(#clip0_180_2411)">
<path d="M31.9966 17.7314C31.3272 18.025 30.614 18.2196 29.8703 18.3141C30.6353 17.8574 31.2192 17.1396 31.4937 16.2745C30.7805 16.6997 29.993 17.0001 29.1537 17.1678C28.4765 16.4466 27.5112 16 26.4582 16C24.4152 16 22.7705 17.6583 22.7705 19.6911C22.7705 19.9836 22.7952 20.2649 22.856 20.5326C19.7881 20.383 17.0735 18.9126 15.2498 16.6728C14.9315 17.2251 14.7447 17.8574 14.7447 18.538C14.7447 19.816 15.4028 20.9489 16.3838 21.6047C15.791 21.5935 15.2093 21.4214 14.7166 21.1502C14.7166 21.1615 14.7166 21.1761 14.7166 21.1907C14.7166 22.984 15.9957 24.4735 17.6731 24.8166C17.3727 24.8988 17.0453 24.9381 16.7056 24.9381C16.4693 24.9381 16.2308 24.9246 16.007 24.8751C16.4851 26.3365 17.8418 27.4109 19.4551 27.4457C18.1996 28.4279 16.6055 29.0196 14.8797 29.0196C14.5771 29.0196 14.2868 29.0061 13.9966 28.969C15.6312 30.0231 17.5685 30.625 19.6576 30.625C26.4481 30.625 30.1606 25 30.1606 20.1242C30.1606 19.9611 30.155 19.8036 30.1471 19.6473C30.8795 19.1275 31.4948 18.4784 31.9966 17.7314Z" fill="#106AD4"/>
</g>
<defs>
<clipPath id="clip0_180_2411">
<rect width="18" height="18" fill="white" transform="translate(13.9966 14)"/>
</clipPath>
</defs>
</svg>
