<svg width="24" height="24" viewBox="0 0 24 24" fill="none" xmlns="http://www.w3.org/2000/svg">
<path opacity="0.4" d="M14.4148 5.48988C13.9388 5.40194 13.5016 5.70573 13.411 6.17041C13.3203 6.63509 13.6251 7.08878 14.0882 7.17972C15.4825 7.45153 16.559 8.53079 16.8319 9.92983V9.93083C16.9096 10.3336 17.2641 10.6264 17.6724 10.6264C17.7272 10.6264 17.782 10.6214 17.8378 10.6114C18.3009 10.5184 18.6056 10.0657 18.515 9.60006C18.1076 7.51049 16.4993 5.8966 14.4148 5.48988Z" fill="white"/>
<path opacity="0.4" d="M14.3524 2.00793C14.1293 1.97595 13.9053 2.04191 13.727 2.18381C13.5438 2.32771 13.4292 2.53557 13.4043 2.76841C13.3516 3.23908 13.6912 3.66479 14.1612 3.71776C17.4029 4.07951 19.9225 6.60477 20.287 9.85654C20.3358 10.2922 20.7013 10.621 21.1375 10.621C21.1704 10.621 21.2022 10.619 21.2351 10.615C21.4632 10.59 21.6663 10.4771 21.8097 10.2972C21.9522 10.1174 22.0169 9.89351 21.991 9.66467C21.5369 5.60746 18.3968 2.45862 14.3524 2.00793Z" fill="white"/>
<path fill-rule="evenodd" clip-rule="evenodd" d="M11.0283 12.9724C15.0174 16.9604 15.9224 12.3467 18.4622 14.8848C20.9109 17.3328 22.3182 17.8232 19.2158 20.9247C18.8272 21.237 16.3582 24.9943 7.68119 16.3197C-0.996896 7.644 2.75817 5.17244 3.07055 4.78395C6.18045 1.67385 6.66244 3.08938 9.11107 5.53733C11.6509 8.0765 7.03924 8.98441 11.0283 12.9724Z" fill="white"/>
</svg>
