<svg width="24" height="24" viewBox="0 0 24 24" fill="none" xmlns="http://www.w3.org/2000/svg">
<path fill-rule="evenodd" clip-rule="evenodd" d="M8.52821 2.93677C10.7131 1.66727 13.3986 1.68946 15.563 2.99489C17.706 4.32691 19.0085 6.70418 18.9964 9.26144C18.9465 11.8019 17.5499 14.19 15.8041 16.0361C14.7964 17.1064 13.6692 18.0528 12.4454 18.856C12.3194 18.9289 12.1813 18.9777 12.0381 19C11.9002 18.9941 11.7659 18.9534 11.6473 18.8814C9.77901 17.6746 8.13992 16.134 6.80891 14.334C5.69517 12.8314 5.06242 11.016 4.99658 9.13442C4.99514 6.57225 6.34335 4.20627 8.52821 2.93677ZM9.79086 10.1948C10.1584 11.1008 11.0259 11.6918 11.9883 11.6918C12.6188 11.6964 13.2249 11.4438 13.6715 10.9905C14.1181 10.5371 14.3682 9.92063 14.3659 9.27838C14.3693 8.29803 13.7921 7.41231 12.904 7.03477C12.0158 6.65723 10.9917 6.86234 10.31 7.55434C9.62828 8.24634 9.42333 9.28872 9.79086 10.1948Z" fill="white"/>
<ellipse opacity="0.4" cx="11.9966" cy="21" rx="5" ry="1" fill="white"/>
</svg>
