<svg width="24" height="24" viewBox="0 0 24 24" fill="none" xmlns="http://www.w3.org/2000/svg">
<path opacity="0.4" d="M21.9966 15.94C21.9966 18.73 19.7566 20.99 16.9666 21H16.9566H7.04658C4.26658 21 1.99658 18.75 1.99658 15.96V15.95C1.99658 15.95 2.00258 11.524 2.01058 9.298C2.01158 8.88 2.49158 8.646 2.81858 8.906C5.19458 10.791 9.44358 14.228 9.49658 14.273C10.2066 14.842 11.1066 15.163 12.0266 15.163C12.9466 15.163 13.8466 14.842 14.5566 14.262C14.6096 14.227 18.7636 10.893 21.1756 8.977C21.5036 8.716 21.9856 8.95 21.9866 9.367C21.9966 11.576 21.9966 15.94 21.9966 15.94Z" fill="white"/>
<path d="M21.4725 5.67351C20.6065 4.04151 18.9025 2.99951 17.0265 2.99951H7.04647C5.17047 2.99951 3.46647 4.04151 2.60047 5.67351C2.40647 6.03851 2.49847 6.49351 2.82147 6.75151L10.2465 12.6905C10.7665 13.1105 11.3965 13.3195 12.0265 13.3195C12.0305 13.3195 12.0335 13.3195 12.0365 13.3195C12.0395 13.3195 12.0435 13.3195 12.0465 13.3195C12.6765 13.3195 13.3065 13.1105 13.8265 12.6905L21.2515 6.75151C21.5745 6.49351 21.6665 6.03851 21.4725 5.67351Z" fill="white"/>
</svg>
