<svg width="24" height="24" viewBox="0 0 24 24" fill="none" xmlns="http://www.w3.org/2000/svg">
<path opacity="0.4" d="M21.9961 12C21.9961 17.524 17.5191 22 11.9961 22C6.47309 22 1.99609 17.524 1.99609 12C1.99609 6.478 6.47309 2 11.9961 2C17.5191 2 21.9961 6.478 21.9961 12Z" fill="white"/>
<path d="M15.57 15.8145C15.439 15.8145 15.307 15.7805 15.186 15.7095L11.26 13.3675C11.034 13.2315 10.895 12.9865 10.895 12.7225V7.67554C10.895 7.26154 11.231 6.92554 11.645 6.92554C12.059 6.92554 12.395 7.26154 12.395 7.67554V12.2965L15.955 14.4195C16.31 14.6325 16.427 15.0925 16.215 15.4485C16.074 15.6835 15.825 15.8145 15.57 15.8145Z" fill="white"/>
</svg>
