<svg width="18" height="18" viewBox="0 0 18 18" fill="none" xmlns="http://www.w3.org/2000/svg">
<g clip-path="url(#clip0_180_2437)">
<path d="M17.9966 3.73137C17.3272 4.025 16.614 4.21962 15.8703 4.31412C16.6353 3.85737 17.2192 3.13962 17.4937 2.2745C16.7805 2.69975 15.993 3.00013 15.1537 3.16775C14.4765 2.44663 13.5112 2 12.4582 2C10.4152 2 8.77046 3.65825 8.77046 5.69113C8.77046 5.98363 8.79521 6.26487 8.85596 6.53262C5.78808 6.383 3.07346 4.91263 1.24983 2.67275C0.931457 3.22513 0.744707 3.85738 0.744707 4.538C0.744707 5.816 1.40283 6.94887 2.38383 7.60475C1.79096 7.5935 1.20933 7.42138 0.716582 7.15025C0.716582 7.1615 0.716582 7.17613 0.716582 7.19075C0.716582 8.984 1.99571 10.4735 3.67308 10.8166C3.37271 10.8988 3.04533 10.9381 2.70558 10.9381C2.46933 10.9381 2.23083 10.9246 2.00696 10.8751C2.48508 12.3365 3.84183 13.4109 5.45508 13.4457C4.19958 14.4279 2.60546 15.0196 0.879707 15.0196C0.577082 15.0196 0.286832 15.0061 -0.00341797 14.969C1.63121 16.0231 3.56846 16.625 5.65758 16.625C12.4481 16.625 16.1606 11 16.1606 6.12425C16.1606 5.96112 16.155 5.80363 16.1471 5.64725C16.8795 5.1275 17.4948 4.47837 17.9966 3.73137Z" fill="white"/>
</g>
<defs>
<clipPath id="clip0_180_2437">
<rect width="18" height="18" fill="white" transform="translate(-0.00341797)"/>
</clipPath>
</defs>
</svg>
