<svg width="90" height="90" viewBox="0 0 90 90" fill="none" xmlns="http://www.w3.org/2000/svg">
<g filter="url(#filter0_d_481_19)">
<rect width="88" height="88" rx="12" fill="#106AD4"/>
<circle cx="44" cy="44" r="24" fill="white"/>
<path d="M48.6999 51.73H39.2999C38.5599 51.73 37.8099 51.2 37.5599 50.51L33.4199 38.92C32.9099 37.46 33.2799 36.79 33.6799 36.49C34.0799 36.19 34.8299 36.01 36.0899 36.91L39.9899 39.7C40.1099 39.77 40.2199 39.8 40.2999 39.78C40.3899 39.75 40.4599 39.67 40.5099 39.53L42.2699 34.84C42.7999 33.44 43.5799 33.23 43.9999 33.23C44.4199 33.23 45.1999 33.44 45.7299 34.84L47.4899 39.53C47.5399 39.66 47.6099 39.75 47.6999 39.78C47.7899 39.81 47.8999 39.78 48.0099 39.69L51.6699 37.08C53.0099 36.12 53.7899 36.31 54.2199 36.62C54.6399 36.94 55.0299 37.65 54.4799 39.2L50.4399 50.51C50.1899 51.2 49.4399 51.73 48.6999 51.73ZM34.6799 37.81C34.6999 37.95 34.7399 38.15 34.8399 38.41L38.9799 50C39.0199 50.1 39.1999 50.23 39.2999 50.23H48.6999C48.8099 50.23 48.9899 50.1 49.0199 50L53.0599 38.7C53.1999 38.32 53.2399 38.06 53.2499 37.91C53.0999 37.96 52.8699 38.07 52.5399 38.31L48.8799 40.92C48.3799 41.27 47.7899 41.38 47.2599 41.22C46.7299 41.06 46.2999 40.64 46.0799 40.07L44.3199 35.38C44.1899 35.03 44.0699 34.86 43.9999 34.78C43.9299 34.86 43.8099 35.03 43.6799 35.37L41.9199 40.06C41.7099 40.63 41.2799 41.05 40.7399 41.21C40.2099 41.37 39.6099 41.26 39.1199 40.91L35.2199 38.12C34.9899 37.96 34.8099 37.86 34.6799 37.81Z" fill="#106AD4"/>
<path d="M49.5 54.75H38.5C38.09 54.75 37.75 54.41 37.75 54C37.75 53.59 38.09 53.25 38.5 53.25H49.5C49.91 53.25 50.25 53.59 50.25 54C50.25 54.41 49.91 54.75 49.5 54.75Z" fill="#106AD4"/>
<path d="M46.5 46.75H41.5C41.09 46.75 40.75 46.41 40.75 46C40.75 45.59 41.09 45.25 41.5 45.25H46.5C46.91 45.25 47.25 45.59 47.25 46C47.25 46.41 46.91 46.75 46.5 46.75Z" fill="#106AD4"/>
</g>
<defs>
<filter id="filter0_d_481_19" x="0" y="0" width="90" height="90" filterUnits="userSpaceOnUse" color-interpolation-filters="sRGB">
<feFlood flood-opacity="0" result="BackgroundImageFix"/>
<feColorMatrix in="SourceAlpha" type="matrix" values="0 0 0 0 0 0 0 0 0 0 0 0 0 0 0 0 0 0 127 0" result="hardAlpha"/>
<feOffset dx="2" dy="2"/>
<feComposite in2="hardAlpha" operator="out"/>
<feColorMatrix type="matrix" values="0 0 0 0 0.141176 0 0 0 0 0.141176 0 0 0 0 0.141176 0 0 0 1 0"/>
<feBlend mode="normal" in2="BackgroundImageFix" result="effect1_dropShadow_481_19"/>
<feBlend mode="normal" in="SourceGraphic" in2="effect1_dropShadow_481_19" result="shape"/>
</filter>
</defs>
</svg>
