<svg width="30" height="30" viewBox="0 0 30 30" fill="none" xmlns="http://www.w3.org/2000/svg">
<path fill-rule="evenodd" clip-rule="evenodd" d="M1.875 5.625C1.875 3.55393 3.55393 1.875 5.625 1.875H7.33953C8.415 1.875 9.35246 2.60695 9.6133 3.65031L10.9955 9.17929C11.2243 10.0941 10.8824 11.0569 10.128 11.6227L8.511 12.8355C8.34309 12.9614 8.30658 13.1458 8.35375 13.2746C9.77314 17.1494 12.8506 20.2269 16.7254 21.6462C16.8542 21.6934 17.0386 21.6569 17.1645 21.489L18.3773 19.872C18.9431 19.1176 19.9059 18.7757 20.8207 19.0045L26.3497 20.3867C27.3931 20.6475 28.125 21.585 28.125 22.6605V24.375C28.125 26.4461 26.4461 28.125 24.375 28.125H21.5625C10.6894 28.125 1.875 19.3106 1.875 8.4375V5.625Z" fill="#106AD4"/>
</svg>
