<svg width="46" height="46" viewBox="0 0 46 46" fill="none" xmlns="http://www.w3.org/2000/svg">
<rect width="45.9999" height="46" rx="4" fill="white"/>
<path d="M31.9954 32.0001V31.9993H31.9999V25.3978C31.9999 22.1684 31.3046 19.6806 27.5291 19.6806C25.7141 19.6806 24.4961 20.6766 23.9989 21.6209H23.9464V19.9821H20.3666V31.9993H24.0941V26.0488C24.0941 24.4821 24.3911 22.9671 26.3314 22.9671C28.2431 22.9671 28.2716 24.7551 28.2716 26.1493V32.0001H31.9954Z" fill="#106AD4"/>
<path d="M14.2968 19.9829H18.0288V32.0001H14.2968V19.9829Z" fill="#106AD4"/>
<path d="M16.1615 14C14.9682 14 14 14.9682 14 16.1615C14 17.3547 14.9682 18.3432 16.1615 18.3432C17.3547 18.3432 18.323 17.3547 18.323 16.1615C18.3222 14.9682 17.354 14 16.1615 14V14Z" fill="#106AD4"/>
</svg>
