<svg width="25" height="25" viewBox="0 0 25 25" fill="none" xmlns="http://www.w3.org/2000/svg">
<path d="M12.75 23.375C6.82 23.375 2 18.555 2 12.625C2 6.695 6.82 1.875 12.75 1.875C18.68 1.875 23.5 6.695 23.5 12.625C23.5 18.555 18.68 23.375 12.75 23.375ZM12.75 3.375C7.65 3.375 3.5 7.525 3.5 12.625C3.5 17.725 7.65 21.875 12.75 21.875C17.85 21.875 22 17.725 22 12.625C22 7.525 17.85 3.375 12.75 3.375Z" fill="#1E1E1E"/>
<path d="M9.75023 22.375H8.75023C8.34023 22.375 8.00023 22.035 8.00023 21.625C8.00023 21.215 8.32023 20.885 8.73023 20.875C7.16023 15.515 7.16023 9.735 8.73023 4.375C8.32023 4.365 8.00023 4.035 8.00023 3.625C8.00023 3.215 8.34023 2.875 8.75023 2.875H9.75023C9.99023 2.875 10.2202 2.995 10.3602 3.185C10.5002 3.385 10.5402 3.635 10.4602 3.865C8.58023 9.515 8.58023 15.735 10.4602 21.395C10.5402 21.625 10.5002 21.875 10.3602 22.075C10.2202 22.255 9.99023 22.375 9.75023 22.375Z" fill="#1E1E1E"/>
<path d="M15.7499 22.3749C15.6699 22.3749 15.5899 22.3649 15.5099 22.3349C15.1199 22.2049 14.8999 21.7749 15.0399 21.3849C16.9199 15.7349 16.9199 9.51494 15.0399 3.85494C14.9099 3.46494 15.1199 3.03494 15.5099 2.90494C15.9099 2.77494 16.3299 2.98494 16.4599 3.37494C18.4499 9.33494 18.4499 15.8949 16.4599 21.8449C16.3599 22.1749 16.0599 22.3749 15.7499 22.3749Z" fill="#1E1E1E"/>
<path d="M12.75 17.825C9.96 17.825 7.18 17.435 4.5 16.645C4.49 17.045 4.16 17.375 3.75 17.375C3.34 17.375 3 17.035 3 16.625V15.625C3 15.385 3.12 15.155 3.31 15.015C3.51 14.875 3.76 14.835 3.99 14.915C9.64 16.795 15.87 16.795 21.52 14.915C21.75 14.835 22 14.875 22.2 15.015C22.4 15.155 22.51 15.385 22.51 15.625V16.625C22.51 17.035 22.17 17.375 21.76 17.375C21.35 17.375 21.02 17.055 21.01 16.645C18.32 17.435 15.54 17.825 12.75 17.825Z" fill="#1E1E1E"/>
<path d="M21.7498 10.3751C21.6698 10.3751 21.5898 10.3651 21.5098 10.3351C15.8598 8.45511 9.62978 8.45511 3.97978 10.3351C3.57978 10.4651 3.15978 10.2551 3.02978 9.86511C2.90978 9.46511 3.11978 9.04511 3.50978 8.91511C9.46978 6.92511 16.0298 6.92511 21.9798 8.91511C22.3698 9.04511 22.5898 9.47511 22.4498 9.86511C22.3598 10.1751 22.0598 10.3751 21.7498 10.3751Z" fill="#1E1E1E"/>
</svg>
