<svg width="26" height="24" viewBox="0 0 26 24" fill="none" xmlns="http://www.w3.org/2000/svg">
<ellipse cx="12.5581" cy="12" rx="12.5581" ry="12" fill="white"/>
<path d="M14.8223 17.115C14.6798 17.115 14.5373 17.0625 14.4248 16.95C14.2073 16.7325 14.2073 16.3725 14.4248 16.155L18.5798 12L14.4248 7.84503C14.2073 7.62753 14.2073 7.26753 14.4248 7.05003C14.6423 6.83253 15.0023 6.83253 15.2198 7.05003L19.7723 11.6025C19.9898 11.82 19.9898 12.18 19.7723 12.3975L15.2198 16.95C15.1073 17.0625 14.9648 17.115 14.8223 17.115Z" fill="#106AD4"/>
<path d="M19.2475 12.5625H6.625C6.3175 12.5625 6.0625 12.3075 6.0625 12C6.0625 11.6925 6.3175 11.4375 6.625 11.4375H19.2475C19.555 11.4375 19.81 11.6925 19.81 12C19.81 12.3075 19.555 12.5625 19.2475 12.5625Z" fill="#106AD4"/>
</svg>
