<svg width="27" height="65" viewBox="0 0 27 65" fill="none" xmlns="http://www.w3.org/2000/svg">
<path d="M10.0357 12.0652H1.16575C1.63044 6.97413 5.24387 2.76055 10.0357 1.39434V12.0652ZM25.5962 12.0652H16.7262V1.39434C21.5181 2.76055 25.1315 6.97413 25.5962 12.0652ZM13.381 38.8271C6.63728 38.8271 1.11508 33.3049 1.11508 26.5612V18.7557H25.6468V26.5612C25.6468 33.3049 20.1247 38.8271 13.381 38.8271Z" fill="white" stroke="white" stroke-width="2.23016"/>
<path d="M12.2929 64.6492C12.6834 65.0398 13.3166 65.0398 13.7071 64.6492L20.0711 58.2853C20.4616 57.8948 20.4616 57.2616 20.0711 56.8711C19.6805 56.4805 19.0474 56.4805 18.6569 56.8711L13 62.5279L7.34315 56.8711C6.95262 56.4805 6.31946 56.4805 5.92893 56.8711C5.53841 57.2616 5.53841 57.8948 5.92893 58.2853L12.2929 64.6492ZM12 49.9421L12 63.9421L14 63.9421L14 49.9421L12 49.9421Z" fill="white"/>
</svg>
