<svg width="49" height="48" viewBox="0 0 49 48" fill="none" xmlns="http://www.w3.org/2000/svg">
<g id="Video">
<rect id="Background" x="0.5" width="48" height="48" rx="24" fill="#106AD4"/>
<path id="Vector" d="M21.3411 31.7287C21.1225 31.7282 20.9078 31.657 20.7181 31.5222C20.291 31.2216 20.0254 30.6379 20.0254 30.0043V17.182C20.0254 16.5466 20.291 15.9647 20.7181 15.6641C20.9124 15.5254 21.133 15.4541 21.357 15.4576C21.581 15.4611 21.8001 15.5393 21.9915 15.684L30.8145 22.2437C30.9984 22.3869 31.15 22.5858 31.255 22.8217C31.3601 23.0575 31.4152 23.3227 31.4152 23.5923C31.4152 23.8618 31.3601 24.127 31.255 24.3629C31.15 24.5988 30.9984 24.7976 30.8145 24.9408L21.9901 31.5023C21.7942 31.6494 21.5699 31.7276 21.3411 31.7287Z" fill="white"/>
</g>
</svg>
