<svg width="140" height="124" viewBox="0 0 140 124" fill="none" xmlns="http://www.w3.org/2000/svg">
<path d="M140 37.3436C140 85.2026 108.66 124 70 124C31.3401 124 0 85.2026 0 37.3436C0 4.30885 26.8401 0 65.5 0C104.16 0 140 3.28742e-05 140 37.3436Z" fill="#106AD4"/>
<path d="M22.58 31.126C21.704 31.126 20.912 30.976 20.204 30.676C19.508 30.376 18.956 29.944 18.548 29.38C18.14 28.816 17.93 28.15 17.918 27.382H20.618C20.654 27.898 20.834 28.306 21.158 28.606C21.494 28.906 21.95 29.056 22.526 29.056C23.114 29.056 23.576 28.918 23.912 28.642C24.248 28.354 24.416 27.982 24.416 27.526C24.416 27.154 24.302 26.848 24.074 26.608C23.846 26.368 23.558 26.182 23.21 26.05C22.874 25.906 22.406 25.75 21.806 25.582C20.99 25.342 20.324 25.108 19.808 24.88C19.304 24.64 18.866 24.286 18.494 23.818C18.134 23.338 17.954 22.702 17.954 21.91C17.954 21.166 18.14 20.518 18.512 19.966C18.884 19.414 19.406 18.994 20.078 18.706C20.75 18.406 21.518 18.256 22.382 18.256C23.678 18.256 24.728 18.574 25.532 19.21C26.348 19.834 26.798 20.71 26.882 21.838H24.11C24.086 21.406 23.9 21.052 23.552 20.776C23.216 20.488 22.766 20.344 22.202 20.344C21.71 20.344 21.314 20.47 21.014 20.722C20.726 20.974 20.582 21.34 20.582 21.82C20.582 22.156 20.69 22.438 20.906 22.666C21.134 22.882 21.41 23.062 21.734 23.206C22.07 23.338 22.538 23.494 23.138 23.674C23.954 23.914 24.62 24.154 25.136 24.394C25.652 24.634 26.096 24.994 26.468 25.474C26.84 25.954 27.026 26.584 27.026 27.364C27.026 28.036 26.852 28.66 26.504 29.236C26.156 29.812 25.646 30.274 24.974 30.622C24.302 30.958 23.504 31.126 22.58 31.126ZM28.5627 26.014C28.5627 24.982 28.7728 24.082 29.1928 23.314C29.6128 22.534 30.1948 21.934 30.9388 21.514C31.6828 21.082 32.5348 20.866 33.4948 20.866C34.7308 20.866 35.7508 21.178 36.5548 21.802C37.3708 22.414 37.9168 23.278 38.1928 24.394H35.4748C35.3308 23.962 35.0848 23.626 34.7368 23.386C34.4008 23.134 33.9808 23.008 33.4768 23.008C32.7568 23.008 32.1868 23.272 31.7668 23.8C31.3468 24.316 31.1368 25.054 31.1368 26.014C31.1368 26.962 31.3468 27.7 31.7668 28.228C32.1868 28.744 32.7568 29.002 33.4768 29.002C34.4968 29.002 35.1628 28.546 35.4748 27.634H38.1928C37.9168 28.714 37.3708 29.572 36.5548 30.208C35.7388 30.844 34.7188 31.162 33.4948 31.162C32.5348 31.162 31.6828 30.952 30.9388 30.532C30.1948 30.1 29.6128 29.5 29.1928 28.732C28.7728 27.952 28.5627 27.046 28.5627 26.014ZM42.5589 22.576C42.8829 22.048 43.3029 21.634 43.8189 21.334C44.3469 21.034 44.9469 20.884 45.6189 20.884V23.53H44.9529C44.1609 23.53 43.5609 23.716 43.1529 24.088C42.7569 24.46 42.5589 25.108 42.5589 26.032V31H40.0389V21.028H42.5589V22.576ZM51.7442 31.162C50.7842 31.162 49.9202 30.952 49.1522 30.532C48.3842 30.1 47.7782 29.494 47.3342 28.714C46.9022 27.934 46.6862 27.034 46.6862 26.014C46.6862 24.994 46.9082 24.094 47.3522 23.314C47.8082 22.534 48.4262 21.934 49.2062 21.514C49.9862 21.082 50.8562 20.866 51.8162 20.866C52.7762 20.866 53.6462 21.082 54.4262 21.514C55.2062 21.934 55.8182 22.534 56.2622 23.314C56.7182 24.094 56.9462 24.994 56.9462 26.014C56.9462 27.034 56.7122 27.934 56.2442 28.714C55.7882 29.494 55.1642 30.1 54.3722 30.532C53.5922 30.952 52.7162 31.162 51.7442 31.162ZM51.7442 28.966C52.2002 28.966 52.6262 28.858 53.0222 28.642C53.4302 28.414 53.7542 28.078 53.9942 27.634C54.2342 27.19 54.3542 26.65 54.3542 26.014C54.3542 25.066 54.1022 24.34 53.5982 23.836C53.1062 23.32 52.5002 23.062 51.7802 23.062C51.0602 23.062 50.4542 23.32 49.9622 23.836C49.4822 24.34 49.2422 25.066 49.2422 26.014C49.2422 26.962 49.4762 27.694 49.9442 28.21C50.4242 28.714 51.0242 28.966 51.7442 28.966ZM61.3147 17.68V31H58.7947V17.68H61.3147ZM66.3245 17.68V31H63.8045V17.68H66.3245ZM77.4953 18.436C78.8153 18.436 79.9733 18.694 80.9693 19.21C81.9773 19.726 82.7513 20.464 83.2913 21.424C83.8433 22.372 84.1193 23.476 84.1193 24.736C84.1193 25.996 83.8433 27.1 83.2913 28.048C82.7513 28.984 81.9773 29.71 80.9693 30.226C79.9733 30.742 78.8153 31 77.4953 31H73.1033V18.436H77.4953ZM77.4053 28.858C78.7253 28.858 79.7453 28.498 80.4653 27.778C81.1853 27.058 81.5453 26.044 81.5453 24.736C81.5453 23.428 81.1853 22.408 80.4653 21.676C79.7453 20.932 78.7253 20.56 77.4053 20.56H75.6233V28.858H77.4053ZM90.4337 31.162C89.4737 31.162 88.6097 30.952 87.8417 30.532C87.0737 30.1 86.4677 29.494 86.0237 28.714C85.5917 27.934 85.3757 27.034 85.3757 26.014C85.3757 24.994 85.5977 24.094 86.0417 23.314C86.4977 22.534 87.1157 21.934 87.8957 21.514C88.6757 21.082 89.5457 20.866 90.5057 20.866C91.4657 20.866 92.3357 21.082 93.1157 21.514C93.8957 21.934 94.5077 22.534 94.9517 23.314C95.4077 24.094 95.6357 24.994 95.6357 26.014C95.6357 27.034 95.4017 27.934 94.9337 28.714C94.4777 29.494 93.8537 30.1 93.0617 30.532C92.2817 30.952 91.4057 31.162 90.4337 31.162ZM90.4337 28.966C90.8897 28.966 91.3157 28.858 91.7117 28.642C92.1197 28.414 92.4437 28.078 92.6837 27.634C92.9237 27.19 93.0437 26.65 93.0437 26.014C93.0437 25.066 92.7917 24.34 92.2877 23.836C91.7957 23.32 91.1897 23.062 90.4697 23.062C89.7497 23.062 89.1437 23.32 88.6517 23.836C88.1717 24.34 87.9317 25.066 87.9317 26.014C87.9317 26.962 88.1657 27.694 88.6337 28.21C89.1137 28.714 89.7137 28.966 90.4337 28.966ZM111.308 21.028L108.392 31H105.674L103.856 24.034L102.038 31H99.3022L96.3682 21.028H98.9242L100.688 28.624L102.596 21.028H105.26L107.132 28.606L108.896 21.028H111.308ZM118.198 20.884C119.386 20.884 120.346 21.262 121.078 22.018C121.81 22.762 122.176 23.806 122.176 25.15V31H119.656V25.492C119.656 24.7 119.458 24.094 119.062 23.674C118.666 23.242 118.126 23.026 117.442 23.026C116.746 23.026 116.194 23.242 115.786 23.674C115.39 24.094 115.192 24.7 115.192 25.492V31H112.672V21.028H115.192V22.27C115.528 21.838 115.954 21.502 116.47 21.262C116.998 21.01 117.574 20.884 118.198 20.884Z" fill="white"/>
<path d="M67.0357 62.0652H58.1657C58.6304 56.9741 62.2439 52.7605 67.0357 51.3943V62.0652ZM82.5962 62.0652H73.7262V51.3943C78.5181 52.7605 82.1315 56.9741 82.5962 62.0652ZM70.381 88.8271C63.6373 88.8271 58.1151 83.3049 58.1151 76.5612V68.7557H82.6468V76.5612C82.6468 83.3049 77.1247 88.8271 70.381 88.8271Z" fill="white" stroke="white" stroke-width="2.23016"/>
<path d="M69.2929 114.649C69.6834 115.04 70.3166 115.04 70.7071 114.649L77.0711 108.285C77.4616 107.895 77.4616 107.262 77.0711 106.871C76.6805 106.481 76.0474 106.481 75.6569 106.871L70 112.528L64.3431 106.871C63.9526 106.481 63.3195 106.481 62.9289 106.871C62.5384 107.262 62.5384 107.895 62.9289 108.285L69.2929 114.649ZM69 99.9421L69 113.942L71 113.942L71 99.9421L69 99.9421Z" fill="white"/>
</svg>
