<svg width="19" height="19" viewBox="0 0 19 19" fill="none" xmlns="http://www.w3.org/2000/svg">
<path d="M15.8991 12.0332L16.8507 12.6042C17.0381 12.7167 17.0989 12.9598 16.9865 13.1473C16.953 13.2029 16.9064 13.2496 16.8507 13.2831L9.90703 17.4492C9.65631 17.5996 9.34313 17.5996 9.09241 17.4492L2.14878 13.2831C1.96133 13.1706 1.90053 12.9274 2.01301 12.74C2.04644 12.6842 2.09307 12.6376 2.14878 12.6042L3.10044 12.0332L9.49972 15.8728L15.8991 12.0332ZM15.8991 8.31234L16.8507 8.88337C17.0381 8.99587 17.0989 9.23899 16.9865 9.42646C16.953 9.48211 16.9064 9.52874 16.8507 9.56223L9.49972 13.9728L2.14878 9.56223C1.96133 9.44973 1.90053 9.20661 2.01301 9.01914C2.04644 8.96341 2.09307 8.91678 2.14878 8.88337L3.10044 8.31234L9.49972 12.1519L15.8991 8.31234ZM9.90703 1.03591L16.8507 5.20211C17.0381 5.31458 17.0989 5.55772 16.9865 5.74518C16.953 5.8009 16.9064 5.84753 16.8507 5.88095L9.49972 10.2915L2.14878 5.88095C1.96133 5.76848 1.90053 5.52534 2.01301 5.33788C2.04644 5.28216 2.09307 5.23553 2.14878 5.20211L9.09241 1.03591C9.34313 0.88549 9.65631 0.88549 9.90703 1.03591ZM9.49972 2.638L4.66052 5.54153L9.49972 8.44503L14.3389 5.54153L9.49972 2.638Z" fill="#106AD4"/>
</svg>
