<svg width="19" height="20" viewBox="0 0 19 20" fill="none" xmlns="http://www.w3.org/2000/svg">
<g clip-path="url(#clip0_66_915)">
<path d="M9.50016 17.9166C5.12791 17.9166 1.5835 14.3722 1.5835 9.99998C1.5835 5.62772 5.12791 2.08331 9.50016 2.08331C13.8724 2.08331 17.4168 5.62772 17.4168 9.99998C17.4168 14.3722 13.8724 17.9166 9.50016 17.9166ZM9.50016 16.3333C12.998 16.3333 15.8335 13.4978 15.8335 9.99998C15.8335 6.50217 12.998 3.66665 9.50016 3.66665C6.00236 3.66665 3.16683 6.50217 3.16683 9.99998C3.16683 13.4978 6.00236 16.3333 9.50016 16.3333ZM10.2918 9.99998H13.4585V11.5833H8.7085V6.04165H10.2918V9.99998Z" fill="#106AD4"/>
</g>
<defs>
<clipPath id="clip0_66_915">
<rect width="19" height="19" fill="white" transform="translate(0 0.5)"/>
</clipPath>
</defs>
</svg>
